<svg width="68" height="66" viewBox="0 0 68 66" fill="none" xmlns="http://www.w3.org/2000/svg">
<path d="M50.3916 0.00398661C40.4366 -0.212013 32.1446 7.63799 31.8986 17.512L31.7746 22.483C31.7406 23.839 32.8316 24.973 34.1986 25.003C35.5656 25.032 36.7116 23.947 36.7446 22.591L36.8696 17.62C37.0476 10.471 43.0606 4.77799 50.2696 4.93399C57.4766 5.09099 63.1996 11.038 63.0216 18.187C62.8426 25.335 56.8296 31.029 49.6216 30.872L18.4986 30.197C8.54364 29.981 0.251644 37.831 0.00564401 47.705C-0.241356 57.579 7.64964 65.78 17.6056 65.995C27.5606 66.211 35.8526 58.362 36.0986 48.488L36.2216 43.572C36.2556 42.215 35.1646 41.082 33.7976 41.052C32.4306 41.022 31.2846 42.108 31.2506 43.464L31.1276 48.38C30.9496 55.529 24.9366 61.222 17.7276 61.066C10.5206 60.909 4.79764 54.962 4.97564 47.813C5.15464 40.664 11.1676 34.971 18.3756 35.127L49.4986 35.802C59.4546 36.018 67.7456 28.169 67.9926 18.295C68.2386 8.41999 60.3476 0.219987 50.3926 0.00498661L50.3916 0.00398661Z" fill="#3172B9"/>
</svg>
