<svg width="64" height="64" viewBox="0 0 64 64" fill="none" xmlns="http://www.w3.org/2000/svg">
<path d="M63.8101 15.0712L53.3321 48.1442L53.5791 48.9242C53.7393 49.4246 53.7986 49.9519 53.7536 50.4754C53.7086 50.999 53.5603 51.5084 53.3171 51.9742C52.9241 52.7302 52.3171 53.3272 51.5701 53.7022L51.5611 53.7352L49.1941 61.2052C48.8722 62.2153 48.1632 63.0567 47.2223 63.5451C46.2815 64.0335 45.1853 64.1292 44.1741 63.8112L32.0001 59.9552L19.8261 63.8112C18.8148 64.1292 17.7187 64.0335 16.7778 63.5451C15.8369 63.0567 15.1279 62.2153 14.8061 61.2052L0.188058 15.0722C0.0280711 14.5716 -0.0310613 14.0444 0.0140824 13.5208C0.0592262 12.9973 0.20775 12.4879 0.451058 12.0222C0.69167 11.5548 1.02267 11.1398 1.42487 10.8013C1.82706 10.4628 2.29245 10.2075 2.79406 10.0502L33.9431 0.185169C34.9542 -0.133462 36.0504 -0.0381761 36.9915 0.450138C37.9325 0.938452 38.6415 1.77995 38.9631 2.79017L39.0401 3.03217C39.0491 3.03417 39.0581 3.03517 39.0661 3.03817L61.2061 10.0512C61.7073 10.2085 62.1723 10.4635 62.5743 10.8017C62.9763 11.1398 63.3073 11.5543 63.5481 12.0212C64.0401 12.9712 64.1331 14.0532 63.8101 15.0712ZM48.4441 54.7482L36.4161 58.5572L44.9781 61.2692C45.3153 61.3759 45.6811 61.3444 45.9951 61.1817C46.3092 61.019 46.5458 60.7382 46.6531 60.4012L48.4441 54.7482ZM51.0371 49.7302L36.4211 3.59617C36.3142 3.25923 36.078 2.97846 35.7644 2.81553C35.4507 2.65259 35.0852 2.62081 34.7481 2.72717L3.60006 12.5932C3.26006 12.7002 2.98306 12.9332 2.81906 13.2502C2.73787 13.4054 2.68829 13.5753 2.67319 13.7499C2.65808 13.9244 2.67775 14.1003 2.73106 14.2672L17.3471 60.4002C17.5691 61.1012 18.3201 61.4902 19.0211 61.2692L31.5611 57.2972C31.5891 57.2872 31.6171 57.2772 31.6461 57.2702L50.1691 51.4032C50.5091 51.2962 50.7861 51.0632 50.9491 50.7462C51.1141 50.4302 51.1451 50.0692 51.0371 49.7292V49.7302ZM48.4971 32.8832L53.4461 17.2632L42.4451 13.7792L48.4971 32.8832ZM61.1801 13.2482C61.0998 13.0927 60.9896 12.9547 60.8557 12.8421C60.7218 12.7295 60.567 12.6446 60.4001 12.5922L40.0231 6.13817L41.4691 10.6992C41.5571 10.7092 41.6451 10.7272 41.7321 10.7552L54.2501 14.7202C54.5841 14.8251 54.894 14.9951 55.1619 15.2205C55.4299 15.4458 55.6505 15.722 55.8111 16.0332C55.9734 16.3437 56.0726 16.6834 56.1028 17.0325C56.133 17.3817 56.0937 17.7333 55.9871 18.0672L49.8951 37.2952L51.9331 43.7292L61.2681 14.2652C61.3751 13.9252 61.3441 13.5652 61.1801 13.2482ZM30.9401 23.3342C31.5152 23.6305 32.0259 24.038 32.4425 24.533C32.8591 25.0281 33.1733 25.6008 33.3671 26.2182C33.5725 26.8636 33.633 27.5464 33.5443 28.2179C33.4557 28.8895 33.22 29.5332 32.8541 30.1032L29.6411 35.1242C29.3916 35.5124 29.0489 35.8318 28.6441 36.0533C28.2393 36.2748 27.7855 36.3913 27.3241 36.3922C26.9701 36.3922 26.6161 36.3242 26.2841 36.1882L20.7651 33.9342C20.1378 33.6788 19.5745 33.2882 19.1154 32.7902C18.6563 32.2922 18.3127 31.6991 18.1091 31.0532C17.9119 30.437 17.8389 29.7879 17.8943 29.1433C17.9498 28.4988 18.1326 27.8716 18.4321 27.2982C18.7284 26.723 19.1359 26.2124 19.631 25.7958C20.126 25.3792 20.6988 25.0649 21.3161 24.8712C22.3839 24.536 23.5338 24.5727 24.5781 24.9752C25.1998 24.0444 26.1189 23.352 27.1851 23.0112C27.8013 22.8143 28.4504 22.7414 29.0949 22.7969C29.7394 22.8523 30.3665 23.0349 30.9401 23.3342ZM30.8251 27.0232C30.7361 26.7402 30.5919 26.4777 30.4009 26.2508C30.2098 26.0239 29.9757 25.8371 29.7121 25.7012C29.4491 25.5638 29.1615 25.48 28.8659 25.4546C28.5703 25.4292 28.2726 25.4627 27.9901 25.5532C27.6178 25.6698 27.2823 25.8815 27.0168 26.1673C26.7513 26.4532 26.565 26.8033 26.4761 27.1832C26.4221 27.4065 26.3114 27.6121 26.1547 27.7801C25.998 27.9481 25.8006 28.0729 25.5816 28.1422C25.3626 28.2116 25.1294 28.2233 24.9045 28.1762C24.6797 28.129 24.4708 28.0247 24.2981 27.8732C24.0064 27.614 23.6523 27.4353 23.2705 27.3546C22.8888 27.274 22.4926 27.2942 22.1211 27.4132C21.838 27.5024 21.5755 27.6468 21.3488 27.8382C21.122 28.0296 20.9355 28.2641 20.8001 28.5282C20.6627 28.7911 20.5789 29.0788 20.5535 29.3743C20.5281 29.6699 20.5616 29.9676 20.6521 30.2502C20.8271 30.8032 21.2371 31.2472 21.7751 31.4672L27.2931 33.7212C27.3114 33.7292 27.3322 33.7299 27.3511 33.7232C27.3696 33.7176 27.3856 33.7055 27.3961 33.6892L30.6091 28.6672C30.9231 28.1772 31.0021 27.5792 30.8261 27.0252L30.8251 27.0232ZM44.1721 40.9302C44.2788 41.2638 44.3183 41.6152 44.2882 41.9642C44.2582 42.3132 44.1592 42.6527 43.9971 42.9632C43.8365 43.2746 43.6158 43.5511 43.3477 43.7767C43.0796 44.0022 42.7694 44.1723 42.4351 44.2772L21.2401 50.9922C20.5659 51.2044 19.835 51.1408 19.2077 50.8152C18.5803 50.4896 18.1076 49.9286 17.8931 49.2552L8.01306 18.0682C7.90624 17.7344 7.8667 17.3828 7.89674 17.0336C7.92678 16.6845 8.0258 16.3448 8.18806 16.0342C8.34862 15.723 8.56923 15.4468 8.83717 15.2215C9.1051 14.9961 9.41503 14.8261 9.74906 14.7212L30.9451 8.00717C31.6194 7.79435 32.3506 7.85772 32.9782 8.18336C33.6059 8.509 34.0788 9.07032 34.2931 9.74417L44.1721 40.9302ZM41.6301 41.7352L31.7501 10.5492L21.9781 13.6432L10.5531 17.2622L20.4331 48.4482L41.6301 41.7352Z" fill="#3172B9"/>
</svg>
